<svg fill="#000000" height="800px" width="800px" version="1.1" id="Layer_1" xmlns="http://www.w3.org/2000/svg" xmlns:xlink="http://www.w3.org/1999/xlink" 
	 viewBox="0 0 512 512" xml:space="preserve">
<g>
	<g>
		<path d="M422.251,237.456c15.885-22.584,13.966-53.855,13.966-53.855s-38.686-2.389-61.074,20
			c-5.7,5.7-9.787,12.456-12.723,19.362c-3.211-12.857-8.147-28.127-15.733-45.467l-30.593,13.382
			c8.114,18.55,16.703,44.619,18.414,65.946c-10.383-5.909-23.643-13.781-38.447-17.026C138.429,205.232,172.8,512,303.199,512
			c34.974,0,34.552-9.722,48.333-9.722c13.781,0,13.359,9.722,48.333,9.722C525.879,512,562.207,225.53,422.251,237.456z"/>
	</g>
</g>
<g>
	<g>
		<path d="M0.002,0v108.327V512H221.62c-11.954-11.068-22.614-24.644-31.8-40.557c-5.09-8.816-9.62-18.242-13.586-28.081H95.562
			v-33.391h69.884c-3.72-14.938-6.189-30.368-7.226-45.847c-0.137-2.04-0.229-4.068-0.315-6.094H95.56v-33.391h63.29
			c1.936-18.904,6.269-36.501,12.836-51.942H95.56v-33.391h96.707c20.169-23.122,47.95-35.616,80.177-35.615c0.008,0,0.02,0,0.027,0
			c4.271,0,8.635,0.223,13.07,0.662c-0.013-0.03-0.027-0.06-0.04-0.091l-7.392-16.898H95.56v-33.391h192.237v12.839l14.915-6.524
			l30.593-13.382l30.593-13.382l12.629,28.87c2.271-1.103,4.551-2.105,6.829-3.021V0H0.002z M287.798,102.029H95.56V68.638h192.237
			V102.029z"/>
	</g>
</g>
</svg>