
<svg fill="#000000" height="800px" width="800px" version="1.1" id="Layer_1" xmlns="http://www.w3.org/2000/svg" xmlns:xlink="http://www.w3.org/1999/xlink" 
	 viewBox="0 0 512 512" xml:space="preserve">
<g>
	<g>
		<path d="M119.691,106.891c0-4.513,0.798-5.902,2.928-9.617c2.931-5.106,7.358-12.822,7.358-26.236H96.587
			c0,4.512-0.798,5.902-2.928,9.616c-2.931,5.106-7.358,12.823-7.358,26.236s4.429,21.13,7.358,26.236
			c2.13,3.713,2.928,5.103,2.928,9.616c0,4.511-0.797,5.9-2.928,9.612c-2.93,5.109-7.358,12.824-7.358,26.237h33.391
			c0-4.511,0.797-5.9,2.928-9.612c2.931-5.106,7.358-12.822,7.358-26.234c0-13.413-4.429-21.129-7.358-26.236
			C120.489,112.794,119.691,111.404,119.691,106.891z"/>
	</g>
</g>
<g>
	<g>
		<path d="M222.566,106.892c0-4.512,0.798-5.902,2.928-9.616c2.932-5.106,7.359-12.823,7.359-26.236h-33.391
			c0,4.512-0.798,5.901-2.928,9.614c-2.931,5.107-7.359,12.823-7.359,26.237c0,13.413,4.429,21.13,7.359,26.237
			c2.13,3.713,2.928,5.102,2.928,9.614c0,4.51-0.798,5.899-2.928,9.612c-2.931,5.106-7.359,12.822-7.359,26.234h33.391
			c0-4.51,0.798-5.899,2.928-9.612c2.931-5.106,7.359-12.822,7.359-26.234c0-13.413-4.429-21.13-7.359-26.236
			C223.364,112.794,222.566,111.404,222.566,106.892z"/>
	</g>
</g>
<g>
	<g>
		<path d="M469.591,245.113H319.154v-21.622H0v142.712c0,41.222,33.537,74.759,74.759,74.759h169.637
			c41.222,0,74.759-33.536,74.759-74.759v-36.274h150.437c23.384,0,42.409-19.024,42.409-42.409
			C512,264.137,492.975,245.113,469.591,245.113z M469.591,296.538H319.154v-18.035h150.437c4.972,0,9.018,4.045,9.018,9.017
			C478.609,292.493,474.563,296.538,469.591,296.538z"/>
	</g>
</g>
</svg>